<svg width="397" height="301" viewBox="0 0 397 301" fill="none" xmlns="http://www.w3.org/2000/svg">
<path d="M118.14 55.3132V33.4132H122.4V55.3132H118.14ZM121.8 46.1932V42.5932L130.56 42.5632V46.1632L121.8 46.1932ZM121.8 37.0132V33.4132H130.98V37.0132H121.8ZM135.472 55.3132V39.0232H139.642V55.3132H135.472ZM133.192 42.1432V39.0232H139.642V42.1432H133.192ZM137.002 37.0732C136.182 37.0732 135.572 36.8632 135.172 36.4432C134.792 36.0032 134.602 35.4632 134.602 34.8232C134.602 34.1432 134.792 33.5932 135.172 33.1732C135.572 32.7532 136.182 32.5432 137.002 32.5432C137.822 32.5432 138.422 32.7532 138.802 33.1732C139.182 33.5932 139.372 34.1432 139.372 34.8232C139.372 35.4632 139.182 36.0032 138.802 36.4432C138.422 36.8632 137.822 37.0732 137.002 37.0732ZM144.958 55.3132V33.4132H149.128V55.3132H144.958ZM142.918 36.5332V33.4132H149.128V36.5332H142.918ZM164.059 55.3132V50.4832H163.369V45.1132C163.369 44.1732 163.139 43.4732 162.679 43.0132C162.219 42.5532 161.509 42.3232 160.549 42.3232C160.049 42.3232 159.449 42.3332 158.749 42.3532C158.049 42.3732 157.339 42.4032 156.619 42.4432C155.919 42.4632 155.289 42.4932 154.729 42.5332V38.9932C155.189 38.9532 155.709 38.9132 156.289 38.8732C156.869 38.8332 157.459 38.8132 158.059 38.8132C158.679 38.7932 159.259 38.7832 159.799 38.7832C161.479 38.7832 162.869 39.0032 163.969 39.4432C165.089 39.8832 165.929 40.5732 166.489 41.5132C167.069 42.4532 167.359 43.6832 167.359 45.2032V55.3132H164.059ZM158.809 55.7332C157.629 55.7332 156.589 55.5232 155.689 55.1032C154.809 54.6832 154.119 54.0832 153.619 53.3032C153.139 52.5232 152.899 51.5832 152.899 50.4832C152.899 49.2832 153.189 48.3032 153.769 47.5432C154.369 46.7832 155.199 46.2132 156.259 45.8332C157.339 45.4532 158.599 45.2632 160.039 45.2632H163.819V47.7532H159.979C159.019 47.7532 158.279 47.9932 157.759 48.4732C157.259 48.9332 157.009 49.5332 157.009 50.2732C157.009 51.0132 157.259 51.6132 157.759 52.0732C158.279 52.5332 159.019 52.7632 159.979 52.7632C160.559 52.7632 161.089 52.6632 161.569 52.4632C162.069 52.2432 162.479 51.8832 162.799 51.3832C163.139 50.8632 163.329 50.1632 163.369 49.2832L164.389 50.4532C164.289 51.5932 164.009 52.5532 163.549 53.3332C163.109 54.1132 162.489 54.7132 161.689 55.1332C160.909 55.5332 159.949 55.7332 158.809 55.7332ZM182.89 55.4332V51.4732H187.42C188.56 51.4732 189.57 51.3032 190.45 50.9632C191.35 50.6032 192.11 50.1032 192.73 49.4632C193.35 48.8232 193.82 48.0732 194.14 47.2132C194.48 46.3332 194.65 45.3632 194.65 44.3032C194.65 43.2032 194.48 42.2232 194.14 41.3632C193.82 40.4832 193.35 39.7332 192.73 39.1132C192.11 38.4932 191.35 38.0232 190.45 37.7032C189.57 37.3832 188.56 37.2232 187.42 37.2232H182.89V33.2632H187.15C189.13 33.2632 190.86 33.5532 192.34 34.1332C193.82 34.7132 195.05 35.5132 196.03 36.5332C197.01 37.5332 197.74 38.6832 198.22 39.9832C198.72 41.2632 198.97 42.5932 198.97 43.9732V44.6332C198.97 45.9532 198.72 47.2532 198.22 48.5332C197.74 49.8132 197.01 50.9732 196.03 52.0132C195.05 53.0532 193.82 53.8832 192.34 54.5032C190.86 55.1232 189.13 55.4332 187.15 55.4332H182.89ZM179.23 55.4332V33.2632H183.49V55.4332H179.23ZM203.535 55.3132V39.0232H207.705V55.3132H203.535ZM201.255 42.1432V39.0232H207.705V42.1432H201.255ZM205.065 37.0732C204.245 37.0732 203.635 36.8632 203.235 36.4432C202.855 36.0032 202.665 35.4632 202.665 34.8232C202.665 34.1432 202.855 33.5932 203.235 33.1732C203.635 32.7532 204.245 32.5432 205.065 32.5432C205.885 32.5432 206.485 32.7532 206.865 33.1732C207.245 33.5932 207.435 34.1432 207.435 34.8232C207.435 35.4632 207.245 36.0032 206.865 36.4432C206.485 36.8632 205.885 37.0732 205.065 37.0732ZM219.171 61.7332C218.391 61.7332 217.591 61.7032 216.771 61.6432C215.971 61.5832 215.221 61.5032 214.521 61.4032V57.9232C215.241 58.0032 216.011 58.0732 216.831 58.1332C217.651 58.2132 218.421 58.2532 219.141 58.2532C220.481 58.2532 221.561 58.0932 222.381 57.7732C223.221 57.4532 223.831 56.9432 224.211 56.2432C224.611 55.5632 224.811 54.6932 224.811 53.6332V50.4232L225.711 48.3832C225.651 49.8832 225.341 51.1632 224.781 52.2232C224.221 53.2632 223.461 54.0632 222.501 54.6232C221.541 55.1632 220.431 55.4332 219.171 55.4332C218.051 55.4332 217.031 55.2232 216.111 54.8032C215.211 54.3832 214.431 53.8032 213.771 53.0632C213.131 52.3232 212.631 51.4532 212.271 50.4532C211.911 49.4532 211.731 48.3832 211.731 47.2432V46.6132C211.731 45.4732 211.911 44.4132 212.271 43.4332C212.651 42.4332 213.181 41.5632 213.861 40.8232C214.541 40.0832 215.351 39.5132 216.291 39.1132C217.231 38.7132 218.271 38.5132 219.411 38.5132C220.751 38.5132 221.911 38.8032 222.891 39.3832C223.891 39.9632 224.671 40.8032 225.231 41.9032C225.791 43.0032 226.101 44.3532 226.161 45.9532L225.441 46.0732V39.0232H228.741V53.3932C228.741 55.3732 228.401 56.9732 227.721 58.1932C227.041 59.4132 225.991 60.3032 224.571 60.8632C223.171 61.4432 221.371 61.7332 219.171 61.7332ZM220.371 51.8632C221.171 51.8632 221.901 51.6832 222.561 51.3232C223.221 50.9632 223.751 50.4432 224.151 49.7632C224.551 49.0832 224.751 48.2632 224.751 47.3032V46.2532C224.751 45.3332 224.541 44.5532 224.121 43.9132C223.721 43.2732 223.191 42.7932 222.531 42.4732C221.871 42.1332 221.151 41.9632 220.371 41.9632C219.491 41.9632 218.711 42.1732 218.031 42.5932C217.371 42.9932 216.851 43.5632 216.471 44.3032C216.091 45.0432 215.901 45.9232 215.901 46.9432C215.901 47.9432 216.091 48.8132 216.471 49.5532C216.851 50.2932 217.371 50.8632 218.031 51.2632C218.711 51.6632 219.491 51.8632 220.371 51.8632ZM234.369 55.3132V39.0232H238.539V55.3132H234.369ZM232.089 42.1432V39.0232H238.539V42.1432H232.089ZM235.899 37.0732C235.079 37.0732 234.469 36.8632 234.069 36.4432C233.689 36.0032 233.499 35.4632 233.499 34.8232C233.499 34.1432 233.689 33.5932 234.069 33.1732C234.469 32.7532 235.079 32.5432 235.899 32.5432C236.719 32.5432 237.319 32.7532 237.699 33.1732C238.079 33.5932 238.269 34.1432 238.269 34.8232C238.269 35.4632 238.079 36.0032 237.699 36.4432C237.319 36.8632 236.719 37.0732 235.899 37.0732ZM250.725 55.5232C249.225 55.5232 247.985 55.3332 247.005 54.9532C246.045 54.5532 245.325 53.8932 244.845 52.9732C244.365 52.0332 244.125 50.7732 244.125 49.1932L244.155 34.4332H248.055L248.025 49.4632C248.025 50.2632 248.235 50.8832 248.655 51.3232C249.095 51.7432 249.715 51.9532 250.515 51.9532H253.065V55.5232H250.725ZM241.545 42.0832V39.0232H253.065V42.0832H241.545ZM266.676 55.3132V50.4832H265.986V45.1132C265.986 44.1732 265.756 43.4732 265.296 43.0132C264.836 42.5532 264.126 42.3232 263.166 42.3232C262.666 42.3232 262.066 42.3332 261.366 42.3532C260.666 42.3732 259.956 42.4032 259.236 42.4432C258.536 42.4632 257.906 42.4932 257.346 42.5332V38.9932C257.806 38.9532 258.326 38.9132 258.906 38.8732C259.486 38.8332 260.076 38.8132 260.676 38.8132C261.296 38.7932 261.876 38.7832 262.416 38.7832C264.096 38.7832 265.486 39.0032 266.586 39.4432C267.706 39.8832 268.546 40.5732 269.106 41.5132C269.686 42.4532 269.976 43.6832 269.976 45.2032V55.3132H266.676ZM261.426 55.7332C260.246 55.7332 259.206 55.5232 258.306 55.1032C257.426 54.6832 256.736 54.0832 256.236 53.3032C255.756 52.5232 255.516 51.5832 255.516 50.4832C255.516 49.2832 255.806 48.3032 256.386 47.5432C256.986 46.7832 257.816 46.2132 258.876 45.8332C259.956 45.4532 261.216 45.2632 262.656 45.2632H266.436V47.7532H262.596C261.636 47.7532 260.896 47.9932 260.376 48.4732C259.876 48.9332 259.626 49.5332 259.626 50.2732C259.626 51.0132 259.876 51.6132 260.376 52.0732C260.896 52.5332 261.636 52.7632 262.596 52.7632C263.176 52.7632 263.706 52.6632 264.186 52.4632C264.686 52.2432 265.096 51.8832 265.416 51.3832C265.756 50.8632 265.946 50.1632 265.986 49.2832L267.006 50.4532C266.906 51.5932 266.626 52.5532 266.166 53.3332C265.726 54.1132 265.106 54.7132 264.306 55.1332C263.526 55.5332 262.566 55.7332 261.426 55.7332ZM274.953 55.3132V33.4132H279.123V55.3132H274.953ZM272.913 36.5332V33.4132H279.123V36.5332H272.913Z" fill="#1565C0"/>
<g filter="url(#filter0_d_118_2771)">
<rect x="29.9541" y="35.623" width="21.6346" height="53.377" rx="10.8173" fill="#1565C0"/>
</g>
<g filter="url(#filter1_d_118_2771)">
<rect x="56.6368" y="1" width="21.6346" height="88" rx="10.8173" fill="#1565C0"/>
</g>
<g filter="url(#filter2_d_118_2771)">
<rect x="104.954" y="54.377" width="21.6346" height="53.377" rx="10.8173" transform="rotate(180 104.954 54.377)" fill="#1565C0"/>
</g>
<g clip-path="url(#clip0_118_2771)">
<path d="M47.3338 21.7919C47.2798 21.4673 46.9552 21.2329 46.6307 21.287C46.3062 21.3411 46.0718 21.6656 46.1259 21.9902C46.18 22.3148 46.2161 22.6575 46.2161 23.0001C46.2161 26.2099 43.6199 28.8066 40.4108 28.8066C37.2016 28.8066 34.6055 26.2099 34.6055 23.0001C34.6055 19.7902 37.2016 17.1935 40.4108 17.1935C41.2401 17.1935 42.0694 17.3738 42.8266 17.7165L42.5382 18.1312C42.3579 18.3656 42.5021 18.7083 42.8086 18.7443L45.2425 19.087C45.549 19.123 45.7834 18.8165 45.6391 18.5279L44.5574 16.3099C44.4312 16.0394 44.0706 16.0214 43.8903 16.2558L43.5478 16.7247C42.5923 16.2197 41.5105 15.9673 40.4108 15.9673C38.5358 15.9673 36.7689 16.7066 35.4348 18.023C34.1187 19.3574 33.3795 21.1247 33.3795 23.0001C33.3795 24.8755 34.1187 26.6427 35.4348 27.9771C36.7689 29.2935 38.5358 30.0329 40.4108 30.0329C42.2858 30.0329 44.0526 29.2935 45.3867 27.9771C46.7028 26.6427 47.442 24.8755 47.442 23.0001C47.442 22.5853 47.406 22.1886 47.3338 21.7919Z" fill="#1565C0"/>
<path d="M40.4289 19.3394C40.0863 19.3394 39.8159 19.6098 39.8159 19.9525L39.7979 23.2705C39.7979 23.2705 39.7979 23.2705 39.7979 23.2885V23.3066V23.3246V23.3426V23.3607C39.7979 23.3607 39.7979 23.3607 39.7979 23.3787V23.3967C39.7979 23.3967 39.7979 23.3967 39.7979 23.4148V23.4328C39.7979 23.4328 39.7979 23.4328 39.7979 23.4508V23.4689C39.7979 23.4689 39.7979 23.4689 39.7979 23.4869V23.5049C39.7979 23.5049 39.7979 23.5049 39.7979 23.523V23.541C39.7979 23.541 39.7979 23.541 39.7979 23.559V23.5771V23.5951C39.7979 23.5951 39.7979 23.5951 39.7979 23.6131V23.6312C39.7979 23.6312 39.7979 23.6312 39.7979 23.6492C39.7979 23.6492 39.7979 23.6672 39.8159 23.6672C39.8159 23.6672 39.8159 23.6853 39.8339 23.6853C39.8339 23.6853 39.8339 23.7033 39.8519 23.7033C39.8519 23.7033 39.8519 23.7213 39.87 23.7213C39.87 23.7213 39.87 23.7394 39.888 23.7394C39.888 23.7394 39.888 23.7394 39.906 23.7574C39.906 23.7574 39.906 23.7574 39.9241 23.7754C39.9241 23.7754 39.9241 23.7754 39.9421 23.7935L42.8808 26.5164C43.007 26.6246 43.1512 26.6787 43.2954 26.6787C43.4577 26.6787 43.62 26.6066 43.7462 26.4803C43.9805 26.2279 43.9625 25.8492 43.7101 25.6148L41.0238 23L41.0418 19.9525C41.0418 19.6279 40.7714 19.3394 40.4289 19.3394Z" fill="#1565C0"/>
</g>
<g clip-path="url(#clip1_118_2771)">
<path d="M91.4625 81.787C92.2922 81.787 92.9649 81.1142 92.9649 80.2842C92.9649 79.4543 92.2922 78.7815 91.4625 78.7815C90.6327 78.7815 89.9601 79.4543 89.9601 80.2842C89.9601 81.1142 90.6327 81.787 91.4625 81.787Z" fill="#1565C0"/>
<path d="M98.9746 81.787C99.8043 81.787 100.477 81.1142 100.477 80.2842C100.477 79.4543 99.8043 78.7815 98.9746 78.7815C98.1448 78.7815 97.4722 79.4543 97.4722 80.2842C97.4722 81.1142 98.1448 81.787 98.9746 81.787Z" fill="#1565C0"/>
<path d="M103.996 64.7581C103.855 64.6172 103.664 64.5381 103.465 64.5381C103.266 64.5381 103.075 64.6172 102.934 64.7581L99.0587 68.6381L97.8936 67.4217C97.8252 67.3505 97.7435 67.2936 97.6531 67.254C97.5627 67.2144 97.4655 67.1931 97.3668 67.1911C97.2682 67.1892 97.1701 67.2067 97.0783 67.2426C96.9864 67.2786 96.9025 67.3323 96.8314 67.4006C96.7602 67.469 96.7033 67.5507 96.6637 67.6411C96.6242 67.7315 96.6028 67.8288 96.6009 67.9275C96.5969 68.1267 96.6723 68.3194 96.8103 68.4631L98.0228 69.7246C98.152 69.8642 98.3081 69.9761 98.4818 70.0536C98.6554 70.1311 98.843 70.1725 99.0331 70.1754H99.0579C99.2443 70.176 99.4289 70.1396 99.601 70.0683C99.7732 69.997 99.9295 69.8922 100.061 69.7599L103.996 65.8205C104.137 65.6796 104.216 65.4885 104.216 65.2893C104.216 65.0901 104.137 64.899 103.996 64.7581Z" fill="#1565C0"/>
<path d="M102.655 70.5285C102.558 70.5109 102.459 70.5127 102.362 70.5337C102.266 70.5546 102.174 70.5944 102.093 70.6507C102.012 70.707 101.943 70.7788 101.89 70.8618C101.836 70.9449 101.8 71.0377 101.783 71.1348L101.686 71.6675C101.593 72.1877 101.319 72.6584 100.914 72.9974C100.508 73.3364 99.9965 73.522 99.4681 73.5219H90.2741L89.568 67.511H94.4673C94.6666 67.511 94.8576 67.4318 94.9985 67.2909C95.1394 67.15 95.2185 66.9589 95.2185 66.7596C95.2185 66.5603 95.1394 66.3692 94.9985 66.2283C94.8576 66.0874 94.6666 66.0082 94.4673 66.0082H89.3907L89.3591 65.7438C89.2944 65.1957 89.0309 64.6905 88.6186 64.3238C88.2063 63.9571 87.6738 63.7544 87.1221 63.7542H86.9553C86.7561 63.7542 86.565 63.8333 86.4241 63.9742C86.2832 64.1151 86.2041 64.3062 86.2041 64.5055C86.2041 64.7048 86.2832 64.8959 86.4241 65.0368C86.565 65.1777 86.7561 65.2569 86.9553 65.2569H87.1221C87.3061 65.2569 87.4837 65.3245 87.6211 65.4468C87.7586 65.5691 87.8465 65.7376 87.868 65.9203L88.9017 74.7113C89.009 75.6256 89.4481 76.4686 90.1358 77.0804C90.8235 77.6922 91.7118 78.0301 92.6321 78.0301H100.477C100.676 78.0301 100.867 77.9509 101.008 77.81C101.149 77.6691 101.228 77.478 101.228 77.2787C101.228 77.0795 101.149 76.8884 101.008 76.7474C100.867 76.6065 100.676 76.5274 100.477 76.5274H92.6321C92.166 76.5275 91.7114 76.383 91.3308 76.1139C90.9502 75.8447 90.6624 75.4642 90.507 75.0246H99.4681C100.349 75.0247 101.201 74.7153 101.877 74.1504C102.553 73.5855 103.009 72.8011 103.165 71.9343L103.261 71.4008C103.296 71.2048 103.252 71.0029 103.139 70.8393C103.025 70.6758 102.851 70.564 102.655 70.5285Z" fill="#1565C0"/>
</g>
<defs>
<filter id="filter0_d_118_2771" x="25.9541" y="35.623" width="29.6346" height="61.377" filterUnits="userSpaceOnUse" color-interpolation-filters="sRGB">
<feFlood flood-opacity="0" result="BackgroundImageFix"/>
<feColorMatrix in="SourceAlpha" type="matrix" values="0 0 0 0 0 0 0 0 0 0 0 0 0 0 0 0 0 0 127 0" result="hardAlpha"/>
<feOffset dy="4"/>
<feGaussianBlur stdDeviation="2"/>
<feComposite in2="hardAlpha" operator="out"/>
<feColorMatrix type="matrix" values="0 0 0 0 0 0 0 0 0 0 0 0 0 0 0 0 0 0 0.25 0"/>
<feBlend mode="normal" in2="BackgroundImageFix" result="effect1_dropShadow_118_2771"/>
<feBlend mode="normal" in="SourceGraphic" in2="effect1_dropShadow_118_2771" result="shape"/>
</filter>
<filter id="filter1_d_118_2771" x="52.6368" y="1" width="29.6346" height="96" filterUnits="userSpaceOnUse" color-interpolation-filters="sRGB">
<feFlood flood-opacity="0" result="BackgroundImageFix"/>
<feColorMatrix in="SourceAlpha" type="matrix" values="0 0 0 0 0 0 0 0 0 0 0 0 0 0 0 0 0 0 127 0" result="hardAlpha"/>
<feOffset dy="4"/>
<feGaussianBlur stdDeviation="2"/>
<feComposite in2="hardAlpha" operator="out"/>
<feColorMatrix type="matrix" values="0 0 0 0 0 0 0 0 0 0 0 0 0 0 0 0 0 0 0.25 0"/>
<feBlend mode="normal" in2="BackgroundImageFix" result="effect1_dropShadow_118_2771"/>
<feBlend mode="normal" in="SourceGraphic" in2="effect1_dropShadow_118_2771" result="shape"/>
</filter>
<filter id="filter2_d_118_2771" x="78.3195" y="0" width="31.6346" height="63.377" filterUnits="userSpaceOnUse" color-interpolation-filters="sRGB">
<feFlood flood-opacity="0" result="BackgroundImageFix"/>
<feColorMatrix in="SourceAlpha" type="matrix" values="0 0 0 0 0 0 0 0 0 0 0 0 0 0 0 0 0 0 127 0" result="hardAlpha"/>
<feMorphology radius="1" operator="dilate" in="SourceAlpha" result="effect1_dropShadow_118_2771"/>
<feOffset dy="4"/>
<feGaussianBlur stdDeviation="2"/>
<feComposite in2="hardAlpha" operator="out"/>
<feColorMatrix type="matrix" values="0 0 0 0 0 0 0 0 0 0 0 0 0 0 0 0 0 0 0.25 0"/>
<feBlend mode="normal" in2="BackgroundImageFix" result="effect1_dropShadow_118_2771"/>
<feBlend mode="normal" in="SourceGraphic" in2="effect1_dropShadow_118_2771" result="shape"/>
</filter>
<clipPath id="clip0_118_2771">
<rect width="18.0288" height="18.0328" fill="white" transform="translate(31.3964 13.9836)"/>
</clipPath>
<clipPath id="clip1_118_2771">
<rect width="18.0288" height="18.0328" fill="white" transform="translate(86.2041 63.7542)"/>
</clipPath>
</defs>
</svg>
