<svg width="159" height="185" viewBox="0 0 159 185" fill="none" xmlns="http://www.w3.org/2000/svg">
<g filter="url(#filter0_d_59_181)">
<rect x="4" y="70.2459" width="43.2692" height="106.754" rx="12" fill="#1565C0"/>
</g>
<g filter="url(#filter1_d_59_181)">
<rect x="57.3654" y="1" width="43.2692" height="176" rx="12" fill="#1565C0"/>
</g>
<g filter="url(#filter2_d_59_181)">
<rect x="154" y="107.754" width="43.2692" height="106.754" rx="12" transform="rotate(180 154 107.754)" fill="#1565C0"/>
</g>
<g clip-path="url(#clip0_59_181)">
<path d="M38.7596 42.5836C38.6514 41.9344 38.0024 41.4656 37.3534 41.5738C36.7043 41.682 36.2356 42.3311 36.3437 42.9803C36.4519 43.6295 36.524 44.3147 36.524 45C36.524 51.4197 31.3317 56.6131 24.9135 56.6131C18.4952 56.6131 13.3029 51.4197 13.3029 45C13.3029 38.5803 18.4952 33.3869 24.9135 33.3869C26.5721 33.3869 28.2308 33.7475 29.7452 34.4328L29.1683 35.2623C28.8077 35.7311 29.0961 36.4164 29.7091 36.4885L34.5769 37.1738C35.1899 37.2459 35.6586 36.6328 35.3702 36.0557L33.2067 31.6197C32.9543 31.0787 32.2332 31.0426 31.8726 31.5115L31.1875 32.4492C29.2764 31.4393 27.113 30.9344 24.9135 30.9344C21.1635 30.9344 17.6298 32.4131 14.9615 35.0459C12.3293 37.7147 10.851 41.2492 10.851 45C10.851 48.7508 12.3293 52.2852 14.9615 54.9541C17.6298 57.5869 21.1635 59.0656 24.9135 59.0656C28.6635 59.0656 32.1971 57.5869 34.8654 54.9541C37.4976 52.2852 38.976 48.7508 38.976 45C38.976 44.1705 38.9038 43.377 38.7596 42.5836Z" fill="#1565C0"/>
<path d="M24.9495 37.6787C24.2644 37.6787 23.7235 38.2197 23.7235 38.9049L23.6875 45.541C23.6875 45.541 23.6875 45.541 23.6875 45.577V45.6131V45.6492V45.6852V45.7213C23.6875 45.7213 23.6875 45.7213 23.6875 45.7574V45.7934C23.6875 45.7934 23.6875 45.7934 23.6875 45.8295V45.8656C23.6875 45.8656 23.6875 45.8656 23.6875 45.9016V45.9377C23.6875 45.9377 23.6875 45.9377 23.6875 45.9738V46.0098C23.6875 46.0098 23.6875 46.0098 23.6875 46.0459V46.082C23.6875 46.082 23.6875 46.082 23.6875 46.118V46.1541V46.1902C23.6875 46.1902 23.6875 46.1902 23.6875 46.2262V46.2623C23.6875 46.2623 23.6875 46.2623 23.6875 46.2984C23.6875 46.2984 23.6875 46.3344 23.7235 46.3344C23.7235 46.3344 23.7235 46.3705 23.7596 46.3705C23.7596 46.3705 23.7596 46.4066 23.7957 46.4066C23.7957 46.4066 23.7957 46.4426 23.8317 46.4426C23.8317 46.4426 23.8317 46.4787 23.8678 46.4787C23.8678 46.4787 23.8678 46.4787 23.9038 46.5147C23.9038 46.5147 23.9038 46.5147 23.9399 46.5508C23.9399 46.5508 23.9399 46.5508 23.9759 46.5869L29.8534 52.0328C30.1058 52.2492 30.3942 52.3574 30.6827 52.3574C31.0072 52.3574 31.3317 52.2131 31.5841 51.9606C32.0529 51.4557 32.0168 50.6984 31.512 50.2295L26.1394 45L26.1755 38.9049C26.1755 38.2557 25.6346 37.6787 24.9495 37.6787Z" fill="#1565C0"/>
</g>
<g clip-path="url(#clip1_59_181)">
<path d="M127.017 162.574C128.676 162.574 130.022 161.228 130.022 159.568C130.022 157.908 128.676 156.563 127.017 156.563C125.357 156.563 124.012 157.908 124.012 159.568C124.012 161.228 125.357 162.574 127.017 162.574Z" fill="#1565C0"/>
<path d="M142.041 162.574C143.7 162.574 145.046 161.228 145.046 159.568C145.046 157.908 143.7 156.563 142.041 156.563C140.381 156.563 139.036 157.908 139.036 159.568C139.036 161.228 140.381 162.574 142.041 162.574Z" fill="#1565C0"/>
<path d="M152.084 128.516C151.803 128.234 151.421 128.076 151.022 128.076C150.624 128.076 150.242 128.234 149.96 128.516L142.209 136.276L139.879 133.843C139.742 133.701 139.579 133.587 139.398 133.508C139.217 133.429 139.023 133.386 138.825 133.382C138.628 133.378 138.432 133.413 138.248 133.485C138.065 133.557 137.897 133.664 137.755 133.801C137.612 133.938 137.498 134.101 137.419 134.282C137.34 134.463 137.297 134.657 137.294 134.855C137.286 135.253 137.436 135.638 137.712 135.926L140.137 138.449C140.396 138.728 140.708 138.952 141.055 139.107C141.403 139.262 141.778 139.345 142.158 139.351H142.208C142.58 139.352 142.95 139.279 143.294 139.136C143.638 138.994 143.951 138.784 144.213 138.52L152.084 130.641C152.366 130.359 152.524 129.977 152.524 129.578C152.524 129.18 152.366 128.798 152.084 128.516Z" fill="#1565C0"/>
<path d="M149.403 140.057C149.208 140.022 149.009 140.025 148.816 140.067C148.623 140.109 148.441 140.189 148.279 140.301C148.116 140.414 147.978 140.557 147.871 140.724C147.765 140.89 147.692 141.075 147.657 141.27L147.465 142.335C147.277 143.375 146.73 144.317 145.919 144.995C145.108 145.673 144.085 146.044 143.028 146.044H124.64L123.228 134.022H133.026C133.425 134.022 133.807 133.864 134.089 133.582C134.371 133.3 134.529 132.918 134.529 132.519C134.529 132.121 134.371 131.738 134.089 131.457C133.807 131.175 133.425 131.016 133.026 131.016H122.873L122.81 130.487C122.681 129.391 122.154 128.381 121.329 127.647C120.504 126.914 119.439 126.509 118.336 126.508H118.002C117.604 126.508 117.222 126.667 116.94 126.948C116.658 127.23 116.5 127.612 116.5 128.011C116.5 128.409 116.658 128.792 116.94 129.074C117.222 129.355 117.604 129.514 118.002 129.514H118.336C118.704 129.514 119.059 129.649 119.334 129.893C119.609 130.138 119.785 130.475 119.828 130.841L121.895 148.423C122.11 150.251 122.988 151.937 124.363 153.161C125.739 154.384 127.515 155.06 129.356 155.06H145.046C145.444 155.06 145.826 154.902 146.108 154.62C146.39 154.338 146.548 153.956 146.548 153.557C146.548 153.159 146.39 152.777 146.108 152.495C145.826 152.213 145.444 152.055 145.046 152.055H129.356C128.424 152.055 127.515 151.766 126.753 151.228C125.992 150.689 125.417 149.928 125.106 149.049H143.028C144.789 149.049 146.494 148.43 147.846 147.301C149.197 146.171 150.109 144.602 150.421 142.868L150.614 141.802C150.684 141.41 150.596 141.006 150.369 140.679C150.142 140.351 149.794 140.128 149.403 140.057Z" fill="#1565C0"/>
</g>
<defs>
<filter id="filter0_d_59_181" x="0" y="70.2459" width="51.2692" height="114.754" filterUnits="userSpaceOnUse" color-interpolation-filters="sRGB">
<feFlood flood-opacity="0" result="BackgroundImageFix"/>
<feColorMatrix in="SourceAlpha" type="matrix" values="0 0 0 0 0 0 0 0 0 0 0 0 0 0 0 0 0 0 127 0" result="hardAlpha"/>
<feOffset dy="4"/>
<feGaussianBlur stdDeviation="2"/>
<feComposite in2="hardAlpha" operator="out"/>
<feColorMatrix type="matrix" values="0 0 0 0 0 0 0 0 0 0 0 0 0 0 0 0 0 0 0.25 0"/>
<feBlend mode="normal" in2="BackgroundImageFix" result="effect1_dropShadow_59_181"/>
<feBlend mode="normal" in="SourceGraphic" in2="effect1_dropShadow_59_181" result="shape"/>
</filter>
<filter id="filter1_d_59_181" x="53.3654" y="1" width="51.2692" height="184" filterUnits="userSpaceOnUse" color-interpolation-filters="sRGB">
<feFlood flood-opacity="0" result="BackgroundImageFix"/>
<feColorMatrix in="SourceAlpha" type="matrix" values="0 0 0 0 0 0 0 0 0 0 0 0 0 0 0 0 0 0 127 0" result="hardAlpha"/>
<feOffset dy="4"/>
<feGaussianBlur stdDeviation="2"/>
<feComposite in2="hardAlpha" operator="out"/>
<feColorMatrix type="matrix" values="0 0 0 0 0 0 0 0 0 0 0 0 0 0 0 0 0 0 0.25 0"/>
<feBlend mode="normal" in2="BackgroundImageFix" result="effect1_dropShadow_59_181"/>
<feBlend mode="normal" in="SourceGraphic" in2="effect1_dropShadow_59_181" result="shape"/>
</filter>
<filter id="filter2_d_59_181" x="105.731" y="0" width="53.2692" height="116.754" filterUnits="userSpaceOnUse" color-interpolation-filters="sRGB">
<feFlood flood-opacity="0" result="BackgroundImageFix"/>
<feColorMatrix in="SourceAlpha" type="matrix" values="0 0 0 0 0 0 0 0 0 0 0 0 0 0 0 0 0 0 127 0" result="hardAlpha"/>
<feMorphology radius="1" operator="dilate" in="SourceAlpha" result="effect1_dropShadow_59_181"/>
<feOffset dy="4"/>
<feGaussianBlur stdDeviation="2"/>
<feComposite in2="hardAlpha" operator="out"/>
<feColorMatrix type="matrix" values="0 0 0 0 0 0 0 0 0 0 0 0 0 0 0 0 0 0 0.25 0"/>
<feBlend mode="normal" in2="BackgroundImageFix" result="effect1_dropShadow_59_181"/>
<feBlend mode="normal" in="SourceGraphic" in2="effect1_dropShadow_59_181" result="shape"/>
</filter>
<clipPath id="clip0_59_181">
<rect width="36.0577" height="36.0656" fill="white" transform="translate(6.88461 26.9672)"/>
</clipPath>
<clipPath id="clip1_59_181">
<rect width="36.0577" height="36.0656" fill="white" transform="translate(116.5 126.508)"/>
</clipPath>
</defs>
</svg>
